inDegrees=no
num_controls=7
num_derivatives=13
num_iterations=101
num_multipliers=7
num_parameters=0
num_slacks=7
num_states=26
objective=0.448439
objective_accelerations=0.051120
objective_balance=0.007867
objective_effort=0.038231
objective_height=0.346282
objective_ligament=0.004939
solver_duration=1463.284781
status=Solve_Succeeded
success=true
DataType=double
version=3
OpenSimVersion=4.5
endheader
time	/jointset/ground_pelvis/pelvis_tilt/value	/jointset/ground_pelvis/pelvis_tx/value	/jointset/ground_pelvis/pelvis_ty/value	/jointset/hip_l/hip_flexion_l/value	/jointset/hip_l/hip_adduction_l/value	/jointset/hip_l/hip_rotation_l/value	/jointset/back/lumbar_extension/value	/jointset/patellofemoral_l/patellar_flexion_l/value	/jointset/knee_l/knee_flexion_l/value	/jointset/knee_l/knee_adduction_l/value	/jointset/knee_l/knee_rotation_l/value	/jointset/ankle_l/ankle_angle_l/value	/jointset/subtalar_l/subtalar_angle_l/value	/jointset/ground_pelvis/pelvis_tilt/speed	/jointset/ground_pelvis/pelvis_tx/speed	/jointset/ground_pelvis/pelvis_ty/speed	/jointset/hip_l/hip_flexion_l/speed	/jointset/hip_l/hip_adduction_l/speed	/jointset/hip_l/hip_rotation_l/speed	/jointset/back/lumbar_extension/speed	/jointset/patellofemoral_l/patellar_flexion_l/speed	/jointset/knee_l/knee_flexion_l/speed	/jointset/knee_l/knee_adduction_l/speed	/jointset/knee_l/knee_rotation_l/speed	/jointset/ankle_l/ankle_angle_l/speed	/jointset/subtalar_l/subtalar_angle_l/speed	/forceset/tau_hip_flexion_l	/forceset/tau_hip_adduction_l	/forceset/tau_hip_rotation_l	/forceset/tau_knee_flexion_l	/forceset/tau_ankle_angle_l	/forceset/tau_subtalar_angle_l	/forceset/tau_lumbar_extension	lambda_cid13_p0	lambda_cid13_p1	lambda_cid13_p2	lambda_cid13_p3	lambda_cid13_p4	lambda_cid13_p5	lambda_cid14_p0	/jointset/ground_pelvis/pelvis_tilt/accel	/jointset/ground_pelvis/pelvis_tx/accel	/jointset/ground_pelvis/pelvis_ty/accel	/jointset/hip_l/hip_flexion_l/accel	/jointset/hip_l/hip_adduction_l/accel	/jointset/hip_l/hip_rotation_l/accel	/jointset/back/lumbar_extension/accel	/jointset/patellofemoral_l/patellar_flexion_l/accel	/jointset/knee_l/knee_flexion_l/accel	/jointset/knee_l/knee_adduction_l/accel	/jointset/knee_l/knee_rotation_l/accel	/jointset/ankle_l/ankle_angle_l/accel	/jointset/subtalar_l/subtalar_angle_l/accel	gamma_cid13_p0	gamma_cid13_p1	gamma_cid13_p2	gamma_cid13_p3	gamma_cid13_p4	gamma_cid13_p5	gamma_cid14_p0
1.5	-0.4690438656108198	-0.08432915777923505	0.756365578801266	1.305071545659632	-0.3105775960455004	-0.04639298096003484	-0.3497503990702867	0.6910773802586125	0.6910773802585802	-0.1736383129239391	0.1742673896485021	0.01998270750814911	-0.05333787105518715	0.7863365027510377	0.2827828646188284	0.510661176585144	-2.434403015263136	0.0351449457487408	-0.6063598512757492	0.5677515901239897	-1.751776609138292	-1.751776609138556	0.0060594051552321	-0.003822143379565924	-0.1939799719217035	0.01725973365765937	-0.2648827013585838	0.03100105566539367	-0.02042186436944403	-0.1955289009442475	0.1509758057293027	0.03085254590300915	0.2352716706248816	9.036415666420806	-17.58102707368224	5.369795184601246	-6.476386491943603	-612.4449652830821	-47.48468047918192	-28.17776545037892	0.7193628911804543	0.755358655791737	-0.27119236559042	-1.72155884774147	0.5971482273259994	-0.2835627309910622	1.930746252110043	-1.152503997928505	-1.152503997928514	0.04628385813797854	-0.04783621483414981	-0.08149849206603491	0.58259901267935	2.568821036918679e-07	7.61734144370394e-07	-1.288459320985027e-06	-6.744159382065095e-08	3.597873928312511e-07	-1.343863593128737e-07	2.966739514815818e-07
1.51	-0.4611449283432979	-0.08146379781094114	0.7614576130154851	1.280643789285747	-0.3101973712028896	-0.05247056183937118	-0.343977991522278	0.6735043412131525	0.6735043412131272	-0.1735773358549849	0.1742282577345149	0.01803891331332043	-0.05313730170081926	0.7933372969769706	0.2902556907390716	0.5076390795879402	-2.450800750222358	0.04090228806549457	-0.6090491615576136	0.5866411736765276	-1.762580439911751	-1.762580439911758	0.006107952682650374	-0.004020589402059248	-0.1947375286162917	0.0228566838827881	-0.2561814281960094	0.03027348621324863	-0.02029152197379716	-0.1942675488717928	0.1506034242029152	0.03017549955079061	0.2285399138586471	9.184393265627762	-17.430609928961	5.480272564578319	-6.385628851342529	-607.477740931625	-47.7979142338154	-29.18508288518073	0.6734079165082338	0.7382528507569688	-0.3336537582574328	-1.546731559671535	0.5652720856421339	-0.2453228505074135	1.854752536628598	-1.006750913828949	-1.006750913790369	-0.01988049891294405	-0.008150560683447071	-0.06667186243409626	0.5484950961787504	1.400126961056726e-07	1.022726780849465e-06	-7.337303739529649e-07	5.628863844780879e-08	2.959378348365504e-07	-4.745418077086993e-08	2.404692307666645e-07
1.52	-0.4531793890878759	-0.07852470792932152	0.7665162391814381	1.256062485414339	-0.3097595239667535	-0.05857177735626873	-0.3380193505127834	0.6558307782006029	0.6558307782005873	-0.1735166774505475	0.1741866810073581	0.01608878603069007	-0.05288071243045024	0.7996569003312464	0.2975288472839665	0.5039795669318647	-2.465112514767939	0.04666942445393068	-0.6110867787884094	0.604998282421184	-1.771881402556185	-1.771881402555936	0.005995672251801532	-0.004311106013614003	-0.1952465894820351	0.02846371685788222	-0.2474801550334296	0.02954591676110757	-0.02016117957815272	-0.1930061967993359	0.1502310426765293	0.02949845319857669	0.2218081570924164	9.324860608469974	-17.28132349158443	5.593723853165296	-6.281761550907351	-602.628226075257	-48.16882235973798	-30.17507130054775	0.5831247168490514	0.7154247407221064	-0.3986754973647322	-1.304364765013543	0.5991070416624626	-0.1532241207773855	1.824251290533744	-0.8519303721236811	-0.8519303721236785	0.01411826648455086	-0.06625033264642596	-0.03179932629705619	0.5846155626724328	7.440788429446153e-08	1.200055747795283e-06	-4.304579974809254e-07	1.268479611820935e-07	2.696925263780513e-07	1.022587356913207e-08	2.122729255457445e-07
1.53	-0.4451541010516264	-0.07551397431955116	0.7715351161790662	1.231348599308682	-0.3092640165789955	-0.06469062491256231	-0.3318801555092638	0.6380718726402705	0.6380718726402886	-0.1734577053511163	0.1741421530529524	0.01413481785820987	-0.05256805617344906	0.8052753954700557	0.304574145673304	0.499691233254149	-2.477290581818938	0.05243223432798414	-0.6125958583244864	0.6227229655401283	-1.779629694828102	-1.779629694827864	0.005791303341562728	-0.00459375314213353	-0.1955030337667818	0.03406862896686941	-0.2384537240974196	0.02854333940099934	-0.02009392150509362	-0.191974073206777	0.1501819662003169	0.02865309878038208	0.2147614617975901	9.568917950603064	-17.07967594390031	5.701793943635614	-6.203969758231849	-597.6861744910387	-48.48112908237527	-31.14337358710651	0.5324306250541827	0.6925527271937616	-0.4595440557045081	-1.118388707454995	0.5647641363852909	-0.1364925249851525	1.728913911169372	-0.6958193868325423	-0.695819386834206	-0.03861057236954998	-0.009016338138372491	-0.01595213745732382	0.5484268635197339	6.327170549417062e-08	1.288492065862021e-06	-3.943582272289065e-07	1.409131925363178e-07	2.834017330517659e-07	3.682554594450753e-08	2.138355617871964e-07
1.54	-0.4370763843214581	-0.0724340936580566	0.7765079834893716	1.206524160326052	-0.3087109018572757	-0.07082191179520791	-0.3255672462568359	0.6202435760107972	0.6202435760108497	-0.1734009561613045	0.174094849740226	0.01217960821130335	-0.05219935122965642	0.8101426391151587	0.3113582576288051	0.4947776294672647	-2.487223090162414	0.05819089124637764	-0.6135746440590548	0.6397411322028574	-1.785759616384293	-1.785759616384065	0.005551090327666344	-0.004866177677999908	-0.1954948843672821	0.0396734542161721	-0.2294272931614056	0.02754076204089321	-0.02002666343202781	-0.1909419496142176	0.1501328897241053	0.02780774436218963	0.2077147665027665	9.805209126336001	-16.87882083588201	5.812448799290973	-6.107501232999983	-592.8622696837298	-48.85118740039558	-32.08564994726524	0.4328744181077875	0.6631874539548341	-0.5237295191984376	-0.8552530235088059	0.5982764505304687	-0.04716536047566139	1.682947999290702	-0.5282562289784273	-0.5282562289784217	0.006949445753031553	-0.06420581411578785	0.02111941055223862	0.584598190735538	5.302644472608712e-08	1.364746024605199e-06	-3.690170327296493e-07	1.523499667896345e-07	2.961111222607485e-07	6.27142808082694e-08	2.151563683831018e-07
1.55	-0.4289537675533412	-0.06928778966160375	0.7814286326063675	1.181611706372006	-0.3081003249352162	-0.07696045429840637	-0.3190879810509381	0.602362143677754	0.6023621436777107	-0.1733468630987413	0.1740449861630484	0.01022575145838921	-0.05177470640080577	0.8142482295567264	0.3178465398905944	0.4892510927678836	-2.494872570886954	0.0639156598829938	-0.6140396209818544	0.6559688032313907	-1.790245352320926	-1.790245352320725	0.005253380493341431	-0.005108709063899673	-0.1952363021007882	0.04524701788062682	-0.2202986047490345	0.02633431402624973	-0.01999933277262219	-0.1899315737387876	0.1500674409713273	0.02685353642402045	0.2005193564324165	10.02993039538517	-16.62965627346317	5.91653420331328	-5.936159716186792	-588.0536298219919	-49.15716330483646	-32.99743461039544	0.3795410528476382	0.6332814325996112	-0.5822181020291615	-0.6605085810161256	0.5580979283594931	-0.03179648524571732	1.571210792823534	-0.366550946018898	-0.3665509460228957	-0.05001147688993344	-0.004455350670309692	0.03426489304623909	0.542272567000578	4.380767647337299e-08	1.426963786736451e-06	-3.560715885542255e-07	1.607583013397317e-07	3.076685478690615e-07	8.778389201734606e-08	2.161985451700079e-07
1.56	-0.4207940669416762	-0.06607827627847129	0.7862909958850254	1.156634615013897	-0.3074327961551644	-0.08310077309624433	-0.3124507323071172	0.584444290251342	0.5844442902512025	-0.1732961231902944	0.1739926615620429	0.008275687979809607	-0.05129461851277051	0.8175594078249502	0.324000134964724	0.4831204617996661	-2.50015057097507	0.06958126284490185	-0.6139299029871981	0.6713378397874811	-1.793043835058084	-1.79304383505791	0.004880459504429986	-0.005358382443529475	-0.1947362295003634	0.05076206605308778	-0.2111699163366594	0.02512786601160865	-0.01997200211322115	-0.1889211978633551	0.1500019922185504	0.02589932848585395	0.1933239463620692	10.24635983393862	-16.38089276933801	6.022800070955401	-5.740853936312946	-583.368000014229	-49.52066526801648	-33.87435964309383	0.2739919834389696	0.5962500164229458	-0.6445483729657269	-0.3809568962237774	0.5864433155888414	0.0677736230155238	1.511221104802118	-0.1908055890834237	-0.1908055890834235	-0.008092785164277749	-0.06563421286178843	0.06941747733841706	0.5728950923367935	3.366548698915076e-08	1.483019166259922e-06	-3.403534781116914e-07	1.686761766328661e-07	3.173698649375591e-07	1.123015051147546e-07	2.15993956343996e-07
